<svg width="153" height="40" viewBox="0 0 153 40" fill="none" xmlns="http://www.w3.org/2000/svg">
<g clip-path="url(#clip0_1_87)">
<path d="M60.7282 7.86604C54.738 7.86604 49.7177 12.0592 49.7177 19.5248C49.7177 26.9905 54.7396 30.9047 60.7758 30.9047C66.812 30.9047 71.742 26.8493 71.742 19.5248C71.742 12.2003 66.6725 7.86604 60.7299 7.86604H60.7282ZM60.7282 26.1584C57.5493 26.1584 55.1532 23.9018 55.1532 19.4789C55.1532 15.056 57.5017 12.6139 60.7282 12.6139C63.9547 12.6139 66.3049 14.9624 66.3049 19.4789C66.3049 23.9954 63.9547 26.1584 60.7282 26.1584Z" fill="#FAF8F1"/>
<path d="M86.1272 8.32715L81.2431 24.3153L76.3131 8.32715H71.1992L78.6632 30.4434L75.8076 39.6585H80.9674L83.7787 30.4434L91.2427 8.32715H86.1289H86.1272Z" fill="#FAF8F1"/>
<path d="M108.916 26.4341V30.4435H91.8672V26.4341L101.911 12.3349H92.2824L93.6347 8.32721H108.039V12.3349L98.0855 26.4341H108.914H108.916ZM100.299 6.57609C102.051 6.57609 103.524 5.10233 103.524 3.35121C103.524 1.60009 102.051 0.0787354 100.299 0.0787354C98.5484 0.0787354 97.0286 1.5525 97.0286 3.34957C97.0286 5.14664 98.5024 6.57445 100.299 6.57445V6.57609Z" fill="#FAF8F1"/>
<path d="M47.146 8.32721V32.6558C47.146 37.0705 44.9419 39.4584 41.6628 40L41.6743 8.32721H47.1476H47.146ZM36.6868 40C38.438 40 39.9117 38.5262 39.9117 36.7751C39.9117 35.024 38.438 33.5042 36.6868 33.5042C34.9357 33.5042 33.416 34.978 33.416 36.7751C33.416 38.5722 34.8898 40 36.6868 40Z" fill="#FAF8F1"/>
<path d="M130.194 19.3377C130.194 11.1828 125.909 7.86438 120.519 7.86438C114.573 7.86438 110.059 11.8737 110.059 19.1999C110.059 27.0791 115.082 30.903 120.979 30.903C124.711 30.903 127.522 29.3373 129.227 26.4325L126.093 23.3471C125.216 25.328 123.237 26.1568 121.071 26.1568C117.984 26.1568 115.448 24.4532 115.035 20.8131H130.192V19.3377H130.194ZM115.126 17.3585C115.68 14.132 117.892 12.6123 120.565 12.6123C123.239 12.6123 125.31 14.2255 125.54 17.3585H115.126Z" fill="#FAF8F1"/>
<path d="M144.8 7.86602C140.93 7.86602 139.04 9.66473 137.704 12.6582H137.614V8.32719H132.221V30.4435H137.614V19.1195C137.614 18.1282 137.75 17.1369 138.053 16.1933C138.9 13.5543 140.486 12.5187 142.729 12.5187C145.217 12.5187 146.784 13.7168 146.784 16.9416V30.4435H152.176V15.5138C152.176 10.1226 148.951 7.86438 144.803 7.86438L144.8 7.86602Z" fill="#FAF8F1"/>
<path d="M60.7282 7.86604C54.738 7.86604 49.7177 12.0592 49.7177 19.5248C49.7177 26.9905 54.7396 30.9047 60.7758 30.9047C66.812 30.9047 71.742 26.8493 71.742 19.5248C71.742 12.2003 66.6725 7.86604 60.7299 7.86604H60.7282ZM60.7282 26.1584C57.5493 26.1584 55.1532 23.9018 55.1532 19.4789C55.1532 15.056 57.5017 12.6139 60.7282 12.6139C63.9547 12.6139 66.3049 14.9624 66.3049 19.4789C66.3049 23.9954 63.9547 26.1584 60.7282 26.1584Z" fill="#EF8F60"/>
<path d="M86.1272 8.32715L81.2431 24.3153L76.3131 8.32715H71.1992L78.6632 30.4434L75.8076 39.6585H80.9674L83.7787 30.4434L91.2427 8.32715H86.1289H86.1272Z" fill="#EF8F60"/>
<path d="M108.916 26.4341V30.4435H91.8672V26.4341L101.911 12.3349H92.2824L93.6347 8.32721H108.039V12.3349L98.0855 26.4341H108.914H108.916ZM100.299 6.57609C102.051 6.57609 103.524 5.10233 103.524 3.35121C103.524 1.60009 102.051 0.0787354 100.299 0.0787354C98.5484 0.0787354 97.0286 1.5525 97.0286 3.34957C97.0286 5.14664 98.5024 6.57445 100.299 6.57445V6.57609Z" fill="#EF8F60"/>
<path d="M47.146 8.32721V32.6558C47.146 37.0705 44.9419 39.4584 41.6628 40L41.6743 8.32721H47.1476H47.146ZM36.6868 40C38.438 40 39.9117 38.5262 39.9117 36.7751C39.9117 35.024 38.438 33.5042 36.6868 33.5042C34.9357 33.5042 33.416 34.978 33.416 36.7751C33.416 38.5722 34.8898 40 36.6868 40Z" fill="#EF8F60"/>
<path d="M130.194 19.3377C130.194 11.1828 125.909 7.86438 120.519 7.86438C114.573 7.86438 110.059 11.8737 110.059 19.1999C110.059 27.0791 115.082 30.903 120.979 30.903C124.711 30.903 127.522 29.3373 129.227 26.4325L126.093 23.3471C125.216 25.328 123.237 26.1568 121.071 26.1568C117.984 26.1568 115.448 24.4532 115.035 20.8131H130.192V19.3377H130.194ZM115.126 17.3585C115.68 14.132 117.892 12.6123 120.565 12.6123C123.239 12.6123 125.31 14.2255 125.54 17.3585H115.126Z" fill="#EF8F60"/>
<path d="M144.8 7.86602C140.93 7.86602 139.04 9.66473 137.704 12.6582H137.614V8.32719H132.221V30.4435H137.614V19.1195C137.614 18.1282 137.75 17.1369 138.053 16.1933C138.9 13.5543 140.486 12.5187 142.729 12.5187C145.217 12.5187 146.784 13.7168 146.784 16.9416V30.4435H152.176V15.5138C152.176 10.1226 148.951 7.86438 144.803 7.86438L144.8 7.86602Z" fill="#EF8F60"/>
<path d="M10.8628 18.5238C4.98421 18.5238 1.16358 15.9619 0 11.283L25.8975 11.2994V18.5238H10.8628Z" fill="#EF8F60"/>
<path d="M12.9114 8.8754C10.5251 8.8754 8.50977 6.86005 8.50977 4.47544C8.50977 2.09084 10.5268 0 12.9114 0C15.296 0 17.3868 2.00714 17.3868 4.47544C17.3868 6.94375 15.337 8.8754 12.9114 8.8754Z" fill="#EF8F60"/>
<path d="M0 28.1557V20.9314H15.0347C20.9133 20.9314 24.7339 23.4932 25.8975 28.1722L0 28.1557Z" fill="#EF8F60"/>
<path d="M12.9862 39.4551C10.5179 39.4551 8.51074 37.448 8.51074 34.9797C8.51074 32.5114 10.5606 30.5797 12.9862 30.5797C15.4118 30.5797 17.3861 32.5951 17.3861 34.9797C17.3861 37.3643 15.3708 39.4551 12.9862 39.4551Z" fill="#EF8F60"/>
</g>
<defs>
<clipPath id="clip0_1_87">
<rect width="152.172" height="40" fill="white"/>
</clipPath>
</defs>
</svg>
