<svg xmlns="http://www.w3.org/2000/svg" width="18" height="18" viewBox="0 0 18 18" fill="none">
  <g clip-path="url(#clip0_1_73)">
    <path d="M9.00028 11.5714C10.598 11.5714 11.8931 10.2762 11.8931 8.67854C11.8931 7.08086 10.598 5.78568 9.00028 5.78568C7.4026 5.78568 6.10742 7.08086 6.10742 8.67854C6.10742 10.2762 7.4026 11.5714 9.00028 11.5714Z" stroke="white" stroke-linecap="round" stroke-linejoin="round"/>
    <path d="M14.1431 17.3571C13.6564 16.4127 12.919 15.6206 12.0118 15.0675C11.1047 14.5145 10.0627 14.222 9.00028 14.222C7.93783 14.222 6.89589 14.5145 5.98871 15.0675C5.08154 15.6206 4.34416 16.4127 3.85742 17.3571" stroke="white" stroke-linecap="round" stroke-linejoin="round"/>
    <path d="M15.4289 13.5771C16.3412 12.3871 16.9024 10.9655 17.049 9.47307C17.1955 7.98069 16.9215 6.47708 16.258 5.1323C15.5945 3.78752 14.5679 2.65523 13.2944 1.86349C12.0209 1.07175 10.5513 0.652149 9.05171 0.652149C7.55215 0.652149 6.08251 1.07175 4.809 1.86349C3.53549 2.65523 2.50893 3.78752 1.84542 5.1323C1.18191 6.47708 0.907922 7.98069 1.05445 9.47307C1.20098 10.9655 1.76218 12.3871 2.67457 13.5771" stroke="white" stroke-linecap="round" stroke-linejoin="round"/>
  </g>
  <defs>
    <clipPath id="clip0_1_73">
      <rect width="18" height="18" fill="white"/>
    </clipPath>
  </defs>
</svg>
