<svg width="14" height="14" viewBox="0 0 14 14" fill="none" xmlns="http://www.w3.org/2000/svg">
<g clip-path="url(#clip0_1_183)">
<path d="M7.00024 9C8.24288 9 9.25024 7.99264 9.25024 6.75C9.25024 5.50736 8.24288 4.5 7.00024 4.5C5.7576 4.5 4.75024 5.50736 4.75024 6.75C4.75024 7.99264 5.7576 9 7.00024 9Z" stroke="black" stroke-linecap="round" stroke-linejoin="round"/>
<path d="M11.0002 13.5C10.6217 12.7654 10.0482 12.1493 9.34257 11.7192C8.63699 11.2891 7.8266 11.0615 7.00024 11.0615C6.17389 11.0615 5.3635 11.2891 4.65792 11.7192C3.95233 12.1493 3.37881 12.7654 3.00024 13.5" stroke="black" stroke-linecap="round" stroke-linejoin="round"/>
<path d="M12.0003 10.5596C12.7099 9.63399 13.1464 8.5283 13.2604 7.36755C13.3743 6.20681 13.1612 5.03734 12.6452 3.9914C12.1291 2.94546 11.3307 2.06479 10.3402 1.44899C9.34967 0.83319 8.20661 0.506836 7.04029 0.506836C5.87396 0.506836 4.73091 0.83319 3.7404 1.44899C2.74989 2.06479 1.95146 2.94546 1.43539 3.9914C0.919328 5.03734 0.706229 6.20681 0.820196 7.36755C0.934163 8.5283 1.37065 9.63399 2.08029 10.5596" stroke="black" stroke-linecap="round" stroke-linejoin="round"/>
</g>
<defs>
<clipPath id="clip0_1_183">
<rect width="14" height="14" fill="white"/>
</clipPath>
</defs>
</svg>
